# xmcd
#
# Track frame offsets: 
#        300
#        29827
#        53339
#        83747
#        101562
#        125197
#        147911
#        165010
#        213929
#        232786
#        248851
#        274506
#
# Disc length: 3868 seconds
#
# Revision: 0
# Processed by: cddbd v1.5.2PL0 Copyright (c) Steve Scherf et al.
# Submitted via: ExactAudioCopy v1.0b1
#
DISCID=990f180c
DTITLE=Philip Sayce Group - Philip Sayce Group
DYEAR=1997
DGENRE=Blues
TTITLE0=Grey City Storm
TTITLE1=Morning Star
TTITLE2=Backwater Blues
TTITLE3=You Can Run But You Can't Hide
TTITLE4=Where You There
TTITLE5=Already Gone
TTITLE6=Walk A Mile
TTITLE7=Wrong Place, Wrong Time (live)
TTITLE8=Brown Sugar
TTITLE9=Going Down
TTITLE10=Can't You See What You're Doing To Me
TTITLE11=Propaganda (instrumental)
EXTD=
EXTT0=
EXTT1=
EXTT2=
EXTT3=
EXTT4=
EXTT5=
EXTT6=
EXTT7=
EXTT8=
EXTT9=
EXTT10=
EXTT11=
PLAYORDER=
